<svg width="385" height="385" viewBox="0 0 385 385" fill="none" xmlns="http://www.w3.org/2000/svg">
<path d="M165.93 124.551C180.954 114.908 186.887 95.396 179.105 78.7883C170.63 60.6999 149.096 52.9067 131.008 61.3817C112.919 69.8568 105.126 91.3907 113.601 109.479C121.383 126.087 140.172 134.016 157.197 128.643L183.083 183.893L125.711 163.13C129.516 145.688 119.914 127.696 102.668 121.455C83.8847 114.657 63.1473 124.373 56.3496 143.156C49.5519 161.94 59.2681 182.677 78.0513 189.475C95.297 195.716 114.19 188.036 122.429 172.199L179.801 192.962L124.551 218.849C114.908 203.825 95.396 197.893 78.7883 205.674C60.6998 214.149 52.9067 235.683 61.3817 253.771C69.8568 271.86 91.3907 279.653 109.479 271.178C126.087 263.397 134.016 244.607 128.643 227.583L183.893 201.696L163.13 259.068C145.688 255.263 127.696 264.866 121.455 282.111C114.657 300.894 124.373 321.632 143.157 328.43C161.94 335.227 182.677 325.511 189.475 306.728C195.716 289.482 188.036 270.589 172.199 262.35L192.962 204.978L218.849 260.228C203.825 269.871 197.893 289.383 205.674 305.991C214.149 324.079 235.683 331.873 253.771 323.398C271.86 314.922 279.653 293.389 271.178 275.3C263.397 258.692 244.607 250.763 227.583 256.136L201.696 200.886L259.068 221.649C255.263 239.091 264.866 257.083 282.111 263.324C300.895 270.122 321.632 260.406 328.43 241.623C335.227 222.84 325.511 202.102 306.728 195.305C289.482 189.063 270.589 196.743 262.35 212.58L204.978 191.817L260.228 165.93C269.871 180.954 289.383 186.887 305.991 179.105C324.079 170.63 331.873 149.096 323.398 131.008C314.922 112.92 293.389 105.126 275.3 113.601C258.692 121.383 250.763 140.172 256.136 157.197L200.886 183.083L221.649 125.711C239.091 129.516 257.083 119.914 263.324 102.668C270.122 83.8848 260.406 63.1474 241.623 56.3497C222.839 49.552 202.102 59.2682 195.304 78.0514C189.063 95.2971 196.743 114.19 212.58 122.429L191.817 179.801L165.93 124.551Z" fill="#FFECE0"/>
</svg>
