<svg width="281" height="367" viewBox="0 0 281 367" fill="none" xmlns="http://www.w3.org/2000/svg">
<path d="M122.739 8.72016e-05C160.119 25.5377 185.062 43.8079 170.69 107.934L170.334 107.789C120.054 86.7098 112.182 61.4181 122.739 8.72016e-05Z" fill="#FFECE0"/>
<path d="M92.1884 76.8277C129.569 102.365 154.512 120.636 140.139 184.762L139.783 184.617C89.5028 163.537 81.631 138.246 92.1884 76.8277Z" fill="#FFECE0"/>
<path d="M61.0458 152.849C98.4259 178.387 123.369 196.657 108.997 260.783L108.64 260.638C58.3602 239.559 50.4884 214.267 61.0458 152.849Z" fill="#FFECE0"/>
<path d="M263.759 105.688C219.15 97.9748 188.527 93.7097 154.172 149.732L154.529 149.876C205.288 169.774 228.553 157.11 263.759 105.688Z" fill="#FFECE0"/>
<path d="M232.616 181.71C188.007 173.997 157.385 169.732 123.03 225.754L123.386 225.898C174.146 245.796 197.411 233.132 232.616 181.71Z" fill="#FFECE0"/>
<path d="M202.064 258.539C157.455 250.825 126.832 246.56 92.4772 302.582L92.8336 302.727C143.593 322.625 166.858 309.961 202.064 258.539Z" fill="#FFECE0"/>
<path d="M167.323 95.3276C159.638 144.635 129.386 248.482 71.4866 331.633" stroke="#FFECE0" stroke-width="10.8041"/>
</svg>
