<svg width="227" height="653" viewBox="0 0 227 653" fill="none" xmlns="http://www.w3.org/2000/svg">
<path d="M1.17491 129.518C-1.15931 113.439 -0.00667965 97.0469 4.55456 81.4535C9.11579 65.8601 16.9788 51.4306 27.6098 39.1447C38.2409 26.8589 51.3909 17.0043 66.1673 10.25C80.9436 3.49579 97.0003 0 113.247 0C129.494 0 145.551 3.49579 160.327 10.25C175.103 17.0043 188.253 26.8589 198.884 39.1447C209.515 51.4306 217.378 65.8601 221.94 81.4535C226.501 97.0469 227.654 113.439 225.319 129.518L187.723 392.564C185.12 410.46 176.162 426.82 162.486 438.651C148.81 450.482 131.331 456.993 113.247 456.993C95.1636 456.993 77.6847 450.482 64.0087 438.651C50.3326 426.82 41.3739 410.46 38.7717 392.564L1.17491 129.518ZM178.519 587.728C178.519 605.039 171.642 621.641 159.401 633.882C147.161 646.123 130.558 653 113.247 653C95.9359 653 79.3337 646.123 67.0928 633.882C54.8519 621.641 47.975 605.039 47.975 587.728C47.975 570.417 54.8519 553.814 67.0928 541.574C79.3337 529.333 95.9359 522.456 113.247 522.456C130.558 522.456 147.161 529.333 159.401 541.574C171.642 553.814 178.519 570.417 178.519 587.728Z" fill="#FFECE0"/>
</svg>
