<svg width="291" height="291" viewBox="0 0 291 291" fill="none" xmlns="http://www.w3.org/2000/svg">
<path d="M278 18C209.302 33.012 162.743 44.8075 146 146H146.597C231.258 145.005 257.347 113.037 278 18Z" fill="white" fill-opacity="0.2"/>
<path d="M12 17C81.7392 32.1293 129.003 44.017 146 146H145.394C59.4502 144.997 32.9656 112.78 12 17Z" fill="white" fill-opacity="0.2"/>
<path d="M291 145.5C291 184.089 275.671 221.097 248.384 248.384C221.098 275.671 184.089 291 145.5 291C106.911 291 69.9025 275.671 42.616 248.384C15.3294 221.098 5.82678e-06 184.089 0 145.5L145.5 145.5H291Z" fill="white" fill-opacity="0.2"/>
</svg>
