<svg width="126" height="36" viewBox="0 0 126 36" fill="none" xmlns="http://www.w3.org/2000/svg">
<path d="M14.9176 4.73983C15.1765 4.35288 15.4899 3.99045 15.851 3.658C16.0377 3.48632 16.2707 3.37323 16.5201 3.32827C17.7383 3.10754 19.0069 2.98356 20.3096 2.97266H20.762C22.0483 2.98356 23.2979 3.10346 24.5024 3.31873C24.7464 3.36233 24.9753 3.46997 25.1606 3.63483C25.5367 3.96592 25.8664 4.33108 26.1403 4.72348C26.2494 4.8788 26.4824 4.87608 26.5873 4.71803C26.7235 4.51365 26.8762 4.31745 27.0424 4.12942C27.1228 4.03813 27.2509 4.00271 27.3667 4.0395C27.7128 4.15259 28.0521 4.27249 28.3832 4.40329C30.0811 5.06274 31.6223 5.9293 32.9522 6.95935C34.0328 7.79729 34.9689 8.74423 35.7374 9.77701C35.92 10.0209 36.3084 9.8901 36.3084 9.5849V5.04639C36.3084 3.90052 37.2363 2.97266 38.3823 2.97266H47.7274C48.8733 2.97266 49.8013 3.90052 49.8013 5.04639V26.9746C49.8013 28.1204 48.8733 29.0483 47.7274 29.0483H5.0466C3.90062 29.0483 2.97266 28.1204 2.97266 26.9746V16.5895C2.97266 15.2407 3.22747 13.9395 3.69758 12.7105C3.85156 12.3086 4.02735 11.9148 4.22765 11.5278C5.85329 8.37908 8.95331 5.81076 12.8641 4.33653C13.1271 4.23706 13.3969 4.14169 13.6694 4.05176C13.7921 4.01089 13.927 4.05449 14.006 4.15667L14.4707 4.7589C14.5851 4.90741 14.8113 4.89788 14.9162 4.74119L14.9176 4.73983Z" fill="#333333"/>
<path d="M47.7294 0H38.3843C36.0624 0 34.1029 1.57506 33.517 3.71283C32.2702 2.89533 30.9143 2.19772 29.4672 1.63637C29.0829 1.48513 28.685 1.34343 28.2885 1.21536C27.7762 1.04777 27.2434 1.0137 26.7351 1.09818C26.2268 0.745291 25.6436 0.504129 25.0263 0.393766C23.6392 0.14579 22.2138 0.0149902 20.7885 0.00272767H20.7749H20.2843C18.8413 0.0149902 17.3969 0.149877 15.9893 0.406028C15.3747 0.516391 14.7983 0.757556 14.2928 1.10908C13.7859 1.02597 13.2544 1.06139 12.7448 1.22762C12.4491 1.32572 12.1371 1.43608 11.8169 1.55598C7.18523 3.30408 3.55105 6.36154 1.59021 10.1602C1.34221 10.6371 1.11737 11.1371 0.922513 11.6494C0.310686 13.2463 0 14.9085 0 16.5926V30.8213C0 33.6035 2.26472 35.868 5.04724 35.868H47.7294C50.5119 35.868 52.7766 33.6035 52.7766 30.8213V5.04945C52.7766 2.26721 50.5119 0.00272767 47.7294 0.00272767V0ZM12.8647 4.3355C13.1277 4.23603 13.3989 4.1393 13.6714 4.05073C13.7941 4.00986 13.929 4.05073 14.008 4.15428L14.4727 4.75651C14.4863 4.77422 14.5013 4.78921 14.5176 4.80148C14.6389 4.90094 14.8256 4.87777 14.9182 4.74016C14.9686 4.66522 15.0204 4.59028 15.0749 4.51807C15.2998 4.21423 15.56 3.92675 15.8503 3.65969C16.037 3.48802 16.27 3.37493 16.5193 3.3286C17.7375 3.10788 19.0062 2.98525 20.3089 2.97299H20.7613C22.049 2.98525 23.2985 3.10379 24.5031 3.31907C24.747 3.36267 24.9759 3.4703 25.1612 3.63517C25.4733 3.91039 25.754 4.21015 25.9965 4.52897C26.047 4.59301 26.0946 4.65841 26.1396 4.72381C26.2268 4.84916 26.3944 4.87096 26.5116 4.79466C26.5402 4.77559 26.5675 4.7497 26.5879 4.71836C26.7255 4.51398 26.8768 4.31778 27.043 4.12976C27.1248 4.03847 27.2529 4.00304 27.3687 4.04119C27.7135 4.15292 28.0528 4.27418 28.3852 4.40362C30.0817 5.06308 31.6229 5.93099 32.9542 6.95969C33.1586 7.11774 33.3575 7.27987 33.5497 7.4461C34.3823 8.15869 35.1154 8.94077 35.7381 9.77735C35.9207 10.0226 36.3104 9.89044 36.3104 9.5866V5.04673C36.3104 4.7497 36.3717 4.47038 36.4848 4.2156C36.805 3.48393 37.5368 2.97299 38.3857 2.97299H47.7307C48.5796 2.97299 49.3087 3.48393 49.6289 4.21423C49.742 4.46902 49.8047 4.7497 49.8047 5.04673V26.9763C49.8047 28.1208 48.8753 29.05 47.7307 29.05H5.0486C3.90398 29.05 2.97466 28.1208 2.97466 26.9763V16.5899C2.97466 15.2424 3.22947 13.9398 3.69958 12.7108C3.85356 12.3089 4.02934 11.9151 4.23101 11.5282C4.89871 10.2352 5.81577 9.04023 6.9345 7.97748C8.54106 6.45283 10.5632 5.20478 12.8675 4.33686L12.8647 4.3355Z" fill="white"/>
<path d="M60.9457 4.8696C60.9457 4.7606 60.9948 4.68157 61.1038 4.67067C61.1937 4.66113 61.2728 4.71972 61.2918 4.81918L62.5114 9.91223C62.6409 10.4668 63.126 10.8237 63.671 10.8237C64.2161 10.8237 64.7012 10.4668 64.8306 9.91223L66.0488 4.81918C66.0693 4.71972 66.1483 4.66113 66.2369 4.67067C66.3459 4.68021 66.3949 4.7606 66.3949 4.8696V10.7256H67.3856V4.8696C67.3856 4.24557 66.97 3.75915 66.3554 3.69103C65.7409 3.6229 65.2258 3.98805 65.0773 4.593L63.8686 9.67652C63.8386 9.78552 63.7596 9.83457 63.671 9.83457C63.5824 9.83457 63.502 9.78552 63.4721 9.67652L62.2634 4.593C62.1149 3.98805 61.5998 3.62154 60.9852 3.69103C60.3707 3.76051 59.9551 4.24557 59.9551 4.8696V10.7256H60.9457V4.8696Z" fill="white"/>
<path d="M71.309 3.69141H71.11C69.8223 3.69141 68.7812 4.73236 68.7812 6.01993V8.49697C68.7812 9.78454 69.8223 10.8255 71.11 10.8255H71.309C72.6076 10.8255 73.6377 9.78454 73.6377 8.49697V6.01993C73.6377 4.73236 72.6076 3.69141 71.309 3.69141ZM72.6471 8.49697C72.6471 9.23 72.053 9.83495 71.309 9.83495H71.11C70.3769 9.83495 69.7719 9.23 69.7719 8.49697V6.01993C69.7719 5.2869 70.3769 4.68195 71.11 4.68195H71.309C72.0421 4.68195 72.6471 5.2869 72.6471 6.01993V8.49697Z" fill="white"/>
<path d="M77.9881 4.68136C78.2157 4.68136 78.3642 4.82987 78.3642 5.04787V10.7254H79.3548V5.0179C79.3548 4.22492 78.8193 3.68945 78.0262 3.68945C77.4117 3.68945 76.8762 4.05597 76.6691 4.60097L74.3008 10.7241H75.3514L77.6106 4.94704C77.6706 4.78899 77.8191 4.67999 77.9867 4.67999L77.9881 4.68136Z" fill="white"/>
<path d="M83.0748 10.8255H83.2724C84.571 10.8255 85.6012 9.78454 85.6012 8.49697V6.01993C85.6012 4.73236 84.571 3.69141 83.2724 3.69141H83.0748C81.7871 3.69141 80.7461 4.73236 80.7461 6.01993V8.49697C80.7461 9.78454 81.7871 10.8255 83.0748 10.8255ZM81.7367 6.01993C81.7367 5.2869 82.3417 4.68195 83.0748 4.68195H83.2724C84.0055 4.68195 84.6106 5.2869 84.6106 6.01993V8.49697C84.6106 9.23 84.0164 9.83495 83.2724 9.83495H83.0748C82.3417 9.83495 81.7367 9.23 81.7367 8.49697V6.01993Z" fill="white"/>
<path d="M87.4517 10.7254H92.1187V12.2119H93.1094V9.73489H92.1187V5.0179C92.1187 4.22492 91.5832 3.68945 90.7901 3.68945C90.1756 3.68945 89.6401 4.05597 89.433 4.60097L87.4517 9.73353H86.3711V12.2106H87.4517V10.7241V10.7254ZM90.3759 4.94841C90.4359 4.79036 90.5844 4.68136 90.752 4.68136C90.9796 4.68136 91.1281 4.82987 91.1281 5.04787V9.73489H88.5023L90.3745 4.94841H90.3759Z" fill="white"/>
<path d="M97.8696 2.30273H96.8789V3.29328H97.8696V2.30273Z" fill="white"/>
<path d="M98.7612 9.73504H95.1938V7.75259H98.5636V6.76205H95.1938V4.78097H98.7612V3.78906H94.2031V10.7256H98.7612V9.73504Z" fill="white"/>
<path d="M96.0863 2.30273H95.0957V3.29328H96.0863V2.30273Z" fill="white"/>
<path d="M101.031 10.7256L102.855 7.75259H103.242V10.7256H104.232V7.75259H104.619L106.442 10.7256H107.602L105.758 7.70355C106.818 7.48554 107.602 6.55359 107.602 5.42407V3.78906H106.611V5.42407C106.611 6.16664 106.017 6.76205 105.284 6.76205H104.234V3.78906H103.243V6.76205H102.192C101.459 6.76205 100.864 6.168 100.864 5.42407V3.78906H99.873V5.42407C99.873 6.55359 100.657 7.48554 101.717 7.70355L99.873 10.7256H101.033H101.031Z" fill="white"/>
<path d="M113.765 10.7256V3.78906H112.775V6.66259H109.901V3.78906H108.91V10.7256H109.901V7.65313H112.775V10.7256H113.765Z" fill="white"/>
<path d="M117.491 10.8255H117.69C118.988 10.8255 120.019 9.78454 120.019 8.49697V6.01993C120.019 4.73236 118.988 3.69141 117.69 3.69141H117.491C116.203 3.69141 115.162 4.73236 115.162 6.01993V8.49697C115.162 9.78454 116.203 10.8255 117.491 10.8255ZM116.153 6.01993C116.153 5.2869 116.758 4.68195 117.491 4.68195H117.69C118.423 4.68195 119.028 5.2869 119.028 6.01993V8.49697C119.028 9.23 118.434 9.83495 117.69 9.83495H117.491C116.758 9.83495 116.153 9.23 116.153 8.49697V6.01993Z" fill="white"/>
<path d="M125.975 4.78097V3.78906H121.416V10.7256H125.975V9.73504H122.407V7.75259H125.776V6.76205H122.407V4.78097H125.975Z" fill="white"/>
<path d="M67.3593 21.756H62.5042V16.9014H71.7048V14.3467H59.9492V32.2337H67.3606C70.1718 32.2337 72.4719 29.8057 72.4719 26.9948C72.4719 24.184 70.1718 21.756 67.3606 21.756H67.3593ZM67.3593 29.6762H62.5042V24.3107H67.3593C68.8159 24.3107 69.9142 25.6391 69.9142 26.9935C69.9142 28.3478 68.8159 29.6762 67.3593 29.6762Z" fill="white"/>
<path d="M88.6936 14.0893H88.1826C84.8605 14.0893 82.1775 16.772 82.1775 20.0938V21.7547H78.0882V14.344H75.5332V32.231H78.0882V24.3094H82.1775V26.4813C82.1775 29.803 84.8605 32.4858 88.1826 32.4858H88.6936C92.0416 32.4858 94.6988 29.803 94.6988 26.4813V20.0925C94.6988 16.7707 92.0416 14.0879 88.6936 14.0879V14.0893ZM92.1425 26.4826C92.1425 28.3738 90.6095 29.9325 88.6923 29.9325H88.1813C86.2899 29.9325 84.7311 28.3738 84.7311 26.4826V20.0938C84.7311 18.2027 86.2899 16.644 88.1813 16.644H88.6923C90.5836 16.644 92.1425 18.2027 92.1425 20.0938V26.4826Z" fill="white"/>
<path d="M104.846 14.3461H98.3301V32.2331H100.885V25.8443H104.846C108.168 25.8443 110.851 23.4163 110.851 20.0945C110.851 16.7727 108.168 14.3447 104.846 14.3447V14.3461ZM104.846 23.2896H100.885V16.9008H104.846C106.738 16.9008 108.296 18.1788 108.296 20.0945C108.296 22.0102 106.738 23.2882 104.846 23.2882V23.2896Z" fill="white"/>
<path d="M119.756 14.0898H119.245C115.923 14.0898 113.24 16.7726 113.24 20.0944V26.4832C113.24 29.805 115.923 32.4878 119.245 32.4878H119.756C123.104 32.4878 125.762 29.805 125.762 26.4832V20.0944C125.762 16.7726 123.104 14.0898 119.756 14.0898ZM123.207 26.4832C123.207 28.3744 121.674 29.9331 119.756 29.9331H119.245C117.354 29.9331 115.795 28.3744 115.795 26.4832V20.0944C115.795 18.2033 117.354 16.6445 119.245 16.6445H119.756C121.648 16.6445 123.207 18.2033 123.207 20.0944V26.4832Z" fill="white"/>
</svg>
