<svg width="17" height="12" viewBox="0 0 17 12" fill="none" xmlns="http://www.w3.org/2000/svg">
<path d="M10.0959 1.63404C9.99953 1.54765 9.92224 1.44347 9.86863 1.32771C9.81503 1.21196 9.7862 1.087 9.78388 0.960298C9.78155 0.833594 9.80578 0.707737 9.85511 0.590236C9.90444 0.472734 9.97786 0.365996 10.071 0.276389C10.1641 0.186781 10.2751 0.11614 10.3972 0.0686791C10.5193 0.0212185 10.6502 -0.00208897 10.7818 0.000146589C10.9135 0.00238215 11.0434 0.0301149 11.1637 0.0816911C11.284 0.133267 11.3923 0.20763 11.4821 0.300343L16.7132 5.33315C16.8968 5.51009 17 5.74993 17 6C17 6.25007 16.8968 6.48991 16.7132 6.66685L11.4821 11.6997C11.3923 11.7924 11.284 11.8667 11.1637 11.9183C11.0434 11.9699 10.9135 11.9976 10.7818 11.9999C10.6502 12.0021 10.5193 11.9788 10.3972 11.9313C10.2751 11.8839 10.1641 11.8132 10.071 11.7236C9.97786 11.634 9.90444 11.5273 9.85511 11.4098C9.80578 11.2923 9.78155 11.1664 9.78388 11.0397C9.7862 10.913 9.81503 10.788 9.86863 10.6723C9.92224 10.5565 9.99953 10.4524 10.0959 10.366L13.653 6.94365L0.98082 6.94365C0.72069 6.94365 0.471214 6.84423 0.287275 6.66726C0.103334 6.49029 0 6.25027 0 6C0 5.74973 0.103334 5.50971 0.287275 5.33274C0.471214 5.15577 0.72069 5.05635 0.98082 5.05635L13.653 5.05635L10.0959 1.63404Z" fill="#F25C03"/>
</svg>
