<svg width="324" height="324" viewBox="0 0 324 324" fill="none" xmlns="http://www.w3.org/2000/svg">
<path fill-rule="evenodd" clip-rule="evenodd" d="M162 21.745C84.5393 21.745 21.745 84.5393 21.745 162C21.745 239.461 84.5393 302.255 162 302.255C239.461 302.255 302.255 239.461 302.255 162C302.255 84.5393 239.461 21.745 162 21.745ZM0 162C0 72.5299 72.5299 0 162 0C251.47 0 324 72.5299 324 162C324 251.47 251.47 324 162 324C72.5299 324 0 251.47 0 162Z" fill="#FF895E"/>
<path fill-rule="evenodd" clip-rule="evenodd" d="M162.004 57.6244C104.358 57.6244 57.6278 104.355 57.6278 162C57.6278 219.645 104.358 266.376 162.004 266.376C219.649 266.376 266.379 219.645 266.379 162C266.379 104.355 219.649 57.6244 162.004 57.6244ZM35.8828 162C35.8828 92.3456 92.349 35.8794 162.004 35.8794C231.658 35.8794 288.124 92.3456 288.124 162C288.124 231.655 231.658 288.121 162.004 288.121C92.349 288.121 35.8828 231.655 35.8828 162Z" fill="#FF895E"/>
<path fill-rule="evenodd" clip-rule="evenodd" d="M162.002 97.852C126.574 97.852 97.8543 126.572 97.8543 162C97.8543 197.427 126.574 226.147 162.002 226.147C197.43 226.147 226.15 197.427 226.15 162C226.15 126.572 197.43 97.852 162.002 97.852ZM76.1094 162C76.1094 114.562 114.565 76.1071 162.002 76.1071C209.439 76.1071 247.895 114.562 247.895 162C247.895 209.437 209.439 247.892 162.002 247.892C114.565 247.892 76.1094 209.437 76.1094 162Z" fill="#FF895E"/>
<path fill-rule="evenodd" clip-rule="evenodd" d="M162 138.081C148.79 138.081 138.081 148.79 138.081 162C138.081 175.211 148.79 185.92 162 185.92C175.211 185.92 185.92 175.211 185.92 162C185.92 148.79 175.211 138.081 162 138.081ZM116.336 162C116.336 136.781 136.781 116.336 162 116.336C187.22 116.336 207.665 136.781 207.665 162C207.665 187.22 187.22 207.665 162 207.665C136.781 207.665 116.336 187.22 116.336 162Z" fill="#FF895E"/>
</svg>
