<svg width="353" height="353" viewBox="0 0 353 353" fill="none" xmlns="http://www.w3.org/2000/svg">
<path d="M176.393 352.786C148.71 352.786 125.942 331.741 123.214 304.777C102.219 321.915 71.2393 320.697 51.6643 301.122C32.0894 281.547 30.8707 250.567 48.0085 229.572C21.0446 226.844 -1.21007e-06 204.076 0 176.393C2.19103e-06 148.71 21.0446 125.942 48.0085 123.214C30.8708 102.219 32.0894 71.2393 51.6644 51.6643C71.2393 32.0894 102.219 30.8707 123.214 48.0084C125.942 21.0445 148.71 2.19102e-06 176.393 0C204.076 -1.21007e-06 226.844 21.0446 229.572 48.0084C250.567 30.8707 281.547 32.0893 301.122 51.6643C320.697 71.2393 321.915 102.219 304.777 123.214C331.741 125.942 352.786 148.71 352.786 176.393C352.786 204.076 331.741 226.844 304.778 229.572C321.915 250.567 320.697 281.547 301.122 301.122C281.547 320.697 250.567 321.915 229.572 304.777C226.844 331.741 204.076 352.786 176.393 352.786Z" fill="#FF895E"/>
</svg>
