<svg width="269" height="251" viewBox="0 0 269 251" fill="none" xmlns="http://www.w3.org/2000/svg">
<path d="M16.6563 239.963C30.5242 180.608 41.4209 140.382 134.902 125.916L134.902 126.432C133.982 199.578 104.451 222.119 16.6563 239.963Z" fill="#FFECE0"/>
<path d="M15.8203 10.3206C29.8836 70.481 40.9337 111.253 135.731 125.916L135.731 125.392C134.799 51.2535 104.852 28.4066 15.8203 10.3206Z" fill="#FFECE0"/>
<path d="M134.9 250.8C170.677 250.8 204.99 237.588 230.288 214.071C255.587 190.554 269.8 158.658 269.8 125.4C269.8 92.1417 255.587 60.2458 230.288 36.7288C204.99 13.2117 170.677 -2.43872e-06 134.9 -5.89666e-06L134.9 125.4L134.9 250.8Z" fill="#FFECE0"/>
</svg>
