<svg width="381" height="370" viewBox="0 0 381 370" fill="none" xmlns="http://www.w3.org/2000/svg">
<path d="M178.859 222.468C166.827 214.382 163.628 198.073 171.714 186.041L192.44 155.202C180.74 165.993 166.404 173.849 150.591 177.814L144.608 179.314C130.547 182.84 116.29 174.299 112.764 160.238C109.238 146.177 117.779 131.92 131.84 128.394L137.823 126.894C147.345 124.506 155.69 119.015 161.63 111.428C138.945 123.856 112.081 126.682 87.1369 119.021L81.2404 117.211C67.3828 112.955 59.5989 98.271 63.8547 84.4133C68.1104 70.5557 82.7943 62.7718 96.6519 67.0275L102.548 68.8384C168.687 89.1498 271.366 -9.91631 316.541 20.8321C361.717 51.5805 306.616 183.03 349.771 237.108L353.619 241.929C362.661 253.26 360.806 269.775 349.475 278.818C338.144 287.86 321.629 286.004 312.587 274.674L308.739 269.852C292.463 249.457 285.238 223.429 288.479 197.767C283.6 206.075 281.552 215.853 282.824 225.587L283.623 231.703C285.5 246.078 275.369 259.252 260.995 261.13C246.621 263.007 233.446 252.877 231.569 238.502L230.77 232.386C228.658 216.221 230.707 200.003 236.455 185.16L215.367 215.753C207.14 227.689 190.795 230.695 178.859 222.468Z" fill="#FF895E"/>
</svg>
