<svg width="281" height="367" viewBox="0 0 281 367" fill="none" xmlns="http://www.w3.org/2000/svg">
<path d="M122.739 8.72016e-05C160.119 25.5377 185.062 43.8079 170.69 107.934L170.334 107.789C120.054 86.7098 112.182 61.4181 122.739 8.72016e-05Z" fill="#FFECE0"/>
<path d="M92.1884 76.8277C129.569 102.365 154.512 120.636 140.139 184.762L139.783 184.617C89.5028 163.537 81.631 138.246 92.1884 76.8277Z" fill="#FFECE0"/>
<path d="M61.0438 152.848C98.424 178.386 123.367 196.656 108.995 260.782L108.638 260.638C58.3582 239.558 50.4865 214.266 61.0438 152.848Z" fill="#FFECE0"/>
<path d="M263.757 105.688C219.148 97.9744 188.525 93.7094 154.171 149.731L154.527 149.876C205.286 169.774 228.551 157.11 263.757 105.688Z" fill="#FFECE0"/>
<path d="M232.616 181.71C188.007 173.997 157.385 169.732 123.03 225.754L123.386 225.898C174.146 245.796 197.411 233.132 232.616 181.71Z" fill="#FFECE0"/>
<path d="M202.062 258.538C157.453 250.824 126.83 246.559 92.4752 302.581L92.8316 302.726C143.591 322.624 166.856 309.96 202.062 258.538Z" fill="#FFECE0"/>
<path d="M167.321 95.3276C159.636 144.635 129.384 248.482 71.4846 331.633" stroke="#FFECE0" stroke-width="10.8041"/>
</svg>
