<svg width="676" height="339" viewBox="0 0 676 339" fill="none" xmlns="http://www.w3.org/2000/svg">
<path fill-rule="evenodd" clip-rule="evenodd" d="M337.966 232.621C209.544 232.586 105.465 128.451 105.501 0.028801L164.892 0.0450298C164.866 95.6661 242.361 173.203 337.982 173.23C433.603 173.256 511.14 95.7608 511.167 0.13968L570.558 0.155909C570.523 128.578 466.388 232.656 337.966 232.621Z" fill="#FFECE0"/>
<path fill-rule="evenodd" clip-rule="evenodd" d="M337.937 338.03C151.299 337.979 0.0401626 186.638 0.0911618 -2.33961e-06L59.4828 0.0162265C59.4407 153.853 184.116 278.597 337.953 278.639C491.79 278.681 616.534 154.006 616.576 0.168514L675.967 0.184743C675.916 186.823 524.575 338.081 337.937 338.03Z" fill="#FFECE0"/>
<path fill-rule="evenodd" clip-rule="evenodd" d="M337.993 132.003C265.141 131.983 206.098 72.9086 206.118 0.0562949L265.51 0.0725238C265.499 40.1238 297.958 72.6007 338.009 72.6117C378.061 72.6226 410.537 40.1635 410.548 0.112186L469.94 0.128415C469.92 72.9808 410.845 132.023 337.993 132.003Z" fill="#FFECE0"/>
</svg>
